<?xml version="1.0" standalone="no"?>
<!DOCTYPE svg PUBLIC "-//W3C//DTD SVG 20010904//EN"
 "http://www.w3.org/TR/2001/REC-SVG-20010904/DTD/svg10.dtd">
<svg version="1.0" xmlns="http://www.w3.org/2000/svg"
 width="256.000000pt" height="256.000000pt" viewBox="0 0 256.000000 256.000000"
 preserveAspectRatio="xMidYMid meet">
<metadata>
Created by potrace 1.14, written by Peter Selinger 2001-2017
</metadata>
<g transform="translate(0.000000,256.000000) scale(0.100000,-0.100000)"
fill="#000000" stroke="none">
<path d="M1185 2039 c-72 -7 -135 -15 -170 -23 -89 -20 -122 -29 -186 -52
-142 -51 -313 -147 -454 -254 -111 -85 -358 -355 -371 -405 -8 -33 10 -83 47
-125 16 -19 56 -64 87 -100 311 -356 724 -560 1137 -562 302 -1 591 99 860
296 80 59 77 56 185 161 46 44 117 121 159 172 98 117 100 135 35 224 -104
142 -337 357 -492 453 -250 156 -572 238 -837 215z m245 -243 c238 -71 399
-300 385 -546 -20 -323 -314 -551 -640 -497 -149 25 -303 143 -374 286 -25 50
-33 73 -48 131 -10 41 -9 169 3 223 19 91 76 196 147 266 71 70 193 136 272
147 28 3 52 8 54 10 9 8 154 -6 201 -20z"/>
<path d="M1201 1559 c-85 -25 -168 -107 -195 -192 -34 -109 -3 -222 83 -299
144 -129 368 -85 453 90 44 91 26 233 -39 307 -77 86 -197 124 -302 94z"/>
</g>
</svg>
